<svg width="15" height="8" viewBox="0 0 15 8" fill="none" xmlns="http://www.w3.org/2000/svg">
<path d="M13.5 0C14.352 0 14.797 0.986 14.283 1.623L14.207 1.707L8.20695 7.707C8.03476 7.87918 7.80566 7.98261 7.56263 7.99789C7.31961 8.01317 7.07936 7.93925 6.88695 7.79L6.79295 7.707L0.792953 1.707L0.709953 1.613L0.655953 1.536L0.601954 1.44L0.584953 1.404L0.557953 1.337L0.525953 1.229L0.515953 1.176L0.505953 1.116L0.501953 1.059V0.941L0.506953 0.883L0.515953 0.823L0.525953 0.771L0.557953 0.663L0.584953 0.596L0.654953 0.464L0.719953 0.374L0.792953 0.293L0.886953 0.21L0.963953 0.156L1.05995 0.102L1.09595 0.085L1.16295 0.0579996L1.27095 0.026L1.32395 0.0159998L1.38395 0.00599957L1.44095 0.00199986L13.5 0Z" fill="#222222"/>
</svg>
